# This file uses centimeters as units for non-parametric coordinates.

mtllib cube_02.mtl
g default
v -1.290353 -1.488744 1.094411
v 1.410289 -2.392581 2.571646
v -1.750000 1.750000 1.750000
v 1.141890 2.009301 2.163634
v -1.496249 2.373203 -1.805138
v 3.250730 1.572794 -1.575569
v -1.455794 -1.550571 -1.087950
v 0.729086 -1.118631 -1.202612
vt 0.375000 0.000000
vt 0.625000 0.000000
vt 0.625000 0.250000
vt 0.375000 0.250000
vt 0.625000 0.500000
vt 0.375000 0.500000
vt 0.625000 0.750000
vt 0.375000 0.750000
vt 0.625000 1.000000
vt 0.375000 1.000000
vt 0.875000 0.000000
vt 0.875000 0.250000
vt 0.125000 0.000000
vt 0.125000 0.250000
vn 0.000000 0.000000 1.000000
vn 0.000000 0.000000 1.000000
vn 0.000000 0.000000 1.000000
vn 0.000000 0.000000 1.000000
vn -0.000000 1.000000 -0.000000
vn -0.000000 1.000000 -0.000000
vn -0.000000 1.000000 -0.000000
vn -0.000000 1.000000 -0.000000
vn 0.000000 0.000000 -1.000000
vn 0.000000 0.000000 -1.000000
vn 0.000000 0.000000 -1.000000
vn 0.000000 0.000000 -1.000000
vn 0.000000 -1.000000 0.000000
vn 0.000000 -1.000000 0.000000
vn 0.000000 -1.000000 0.000000
vn 0.000000 -1.000000 0.000000
vn 1.000000 0.000000 0.000000
vn 1.000000 0.000000 0.000000
vn 1.000000 0.000000 0.000000
vn 1.000000 0.000000 0.000000
vn -1.000000 0.000000 0.000000
vn -1.000000 0.000000 0.000000
vn -1.000000 0.000000 0.000000
vn -1.000000 0.000000 0.000000
s 1
g pCube2
usemtl initialShadingGroup1
f 1/1/1 2/2/2 3/4/3
f 3/4/3 2/2/2 4/3/4
s 2
f 3/4/5 4/3/6 5/6/7
f 5/6/7 4/3/6 6/5/8
s 3
f 5/6/9 6/5/10 7/8/1
f 7/8/11 6/5/10 8/7/12
s 4
f 7/8/13 8/7/14 1/10/15
f 1/10/15 8/7/14 2/9/16
s 5
f 2/2/17 8/11/18 4/3/19
f 4/3/19 8/11/18 6/12/20
s 6
f 7/13/21 1/1/22 5/14/23
f 5/14/23 1/1/22 3/4/24
