# This file uses centimeters as units for non-parametric coordinates.

mtllib sphere_02.mtl
g default
v 0.951057 -1.618034 -0.690983
v 0.363271 -1.618034 -1.118034
v -0.363271 -1.618034 -1.118034
v -0.951057 -1.618034 -0.690983
v -1.175571 -1.618034 0.000000
v -0.951057 -1.618034 0.690983
v -0.363271 -1.618034 1.118034
v 0.363271 -1.618034 1.118034
v 0.951057 -1.618034 0.690983
v 1.175570 -1.618034 0.000000
v 1.538842 -0.618034 -1.118034
v 0.587785 -0.618034 -1.809017
v -0.587786 -0.618034 -1.809017
v -1.538842 -0.618034 -1.118034
v -1.902113 -0.618034 0.000000
v -1.538842 -0.618034 1.118034
v -0.587785 -0.618034 1.809017
v 0.587785 -0.618034 1.809017
v 1.538842 -0.618034 1.118034
v 1.902113 -0.618034 0.000000
v 1.538842 0.618034 -1.118034
v 0.587785 0.618034 -1.809017
v -0.587786 0.618034 -1.809017
v -1.538842 0.618034 -1.118034
v -1.902113 0.618034 0.000000
v -1.538842 0.618034 1.118034
v -0.587785 0.618034 1.809017
v 0.587785 0.618034 1.809017
v 1.538842 0.618034 1.118034
v 1.902113 0.618034 0.000000
v 0.951057 1.618034 -0.690983
v 0.363271 1.618034 -1.118034
v -0.363271 1.618034 -1.118034
v -0.951057 1.618034 -0.690983
v -1.175571 1.618034 0.000000
v -0.951057 1.618034 0.690983
v -0.363271 1.618034 1.118034
v 0.363271 1.618034 1.118034
v 0.951057 1.618034 0.690983
v 1.175570 1.618034 0.000000
v 0.000000 -2.000000 0.000000
v 0.000000 2.000000 0.000000
vt 0.000000 0.200000
vt 0.100000 0.200000
vt 0.000000 0.400000
vt 0.100000 0.400000
vt 0.200000 0.200000
vt 0.200000 0.400000
vt 0.300000 0.200000
vt 0.300000 0.400000
vt 0.400000 0.200000
vt 0.400000 0.400000
vt 0.500000 0.200000
vt 0.500000 0.400000
vt 0.600000 0.200000
vt 0.600000 0.400000
vt 0.700000 0.200000
vt 0.700000 0.400000
vt 0.800000 0.200000
vt 0.800000 0.400000
vt 0.900000 0.200000
vt 0.900000 0.400000
vt 1.000000 0.200000
vt 1.000000 0.400000
vt 0.000000 0.600000
vt 0.100000 0.600000
vt 0.200000 0.600000
vt 0.300000 0.600000
vt 0.400000 0.600000
vt 0.500000 0.600000
vt 0.600000 0.600000
vt 0.700000 0.600000
vt 0.800000 0.600000
vt 0.900000 0.600000
vt 1.000000 0.600000
vt 0.000000 0.800000
vt 0.100000 0.800000
vt 0.200000 0.800000
vt 0.300000 0.800000
vt 0.400000 0.800000
vt 0.500000 0.800000
vt 0.600000 0.800000
vt 0.700000 0.800000
vt 0.800000 0.800000
vt 0.900000 0.800000
vt 1.000000 0.800000
vt 0.050000 0.000000
vt 0.150000 0.000000
vt 0.250000 0.000000
vt 0.350000 0.000000
vt 0.450000 0.000000
vt 0.550000 0.000000
vt 0.650000 0.000000
vt 0.750000 0.000000
vt 0.850000 0.000000
vt 0.950000 0.000000
vt 0.050000 1.000000
vt 0.150000 1.000000
vt 0.250000 1.000000
vt 0.350000 1.000000
vt 0.450000 1.000000
vt 0.550000 1.000000
vt 0.650000 1.000000
vt 0.750000 1.000000
vt 0.850000 1.000000
vt 0.950000 1.000000
vn 0.483572 -0.568473 -0.665580
vn 0.483572 -0.568473 -0.665580
vn 0.483572 -0.568473 -0.665580
vn 0.483572 -0.568473 -0.665580
vn 0.000000 -0.568473 -0.822702
vn 0.000000 -0.568473 -0.822702
vn -0.483572 -0.568473 -0.665580
vn -0.483572 -0.568473 -0.665580
vn -0.782436 -0.568473 -0.254229
vn -0.782436 -0.568473 -0.254229
vn -0.782436 -0.568473 0.254229
vn -0.782436 -0.568473 0.254229
vn -0.483572 -0.568473 0.665580
vn -0.483572 -0.568473 0.665580
vn 0.000000 -0.568473 0.822702
vn 0.000000 -0.568473 0.822702
vn 0.483572 -0.568473 0.665580
vn 0.483572 -0.568473 0.665580
vn 0.782436 -0.568473 0.254229
vn 0.782436 -0.568473 0.254229
vn 0.587785 0.000000 -0.809017
vn 0.587785 0.000000 -0.809017
vn -0.000000 0.000000 -1.000000
vn -0.587785 0.000000 -0.809017
vn -0.951057 0.000000 -0.309017
vn -0.951057 0.000000 0.309017
vn -0.587785 0.000000 0.809017
vn 0.000000 0.000000 1.000000
vn 0.587785 0.000000 0.809017
vn 0.951057 0.000000 0.309017
vn 0.483572 0.568473 -0.665580
vn 0.483572 0.568473 -0.665580
vn -0.000000 0.568473 -0.822702
vn -0.483572 0.568473 -0.665580
vn -0.782436 0.568473 -0.254229
vn -0.782436 0.568473 0.254229
vn -0.483572 0.568473 0.665580
vn 0.000000 0.568473 0.822702
vn 0.483572 0.568473 0.665580
vn 0.782436 0.568473 0.254229
vn 0.190028 -0.946299 -0.261550
vn 0.190028 0.946299 -0.261550
s 1
g pSphere1
usemtl initialShadingGroup1
f 1/1/1 2/2/2 11/3/3
f 11/3/3 2/2/2 12/4/4
f 2/2/2 3/5/5 12/4/4
f 12/4/4 3/5/5 13/6/6
f 3/5/5 4/7/7 13/6/6
f 13/6/6 4/7/7 14/8/8
f 4/7/7 5/9/9 14/8/8
f 14/8/8 5/9/9 15/10/10
f 5/9/9 6/11/11 15/10/10
f 15/10/10 6/11/11 16/12/12
f 6/11/11 7/13/13 16/12/12
f 16/12/12 7/13/13 17/14/14
f 7/13/13 8/15/15 17/14/14
f 17/14/14 8/15/15 18/16/16
f 8/15/15 9/17/17 18/16/16
f 18/16/16 9/17/17 19/18/18
f 9/17/17 10/19/19 19/18/18
f 19/18/18 10/19/19 20/20/20
f 10/19/19 1/21/1 20/20/20
f 20/20/20 1/21/1 11/22/3
f 11/3/3 12/4/4 21/23/21
f 21/23/21 12/4/4 22/24/22
f 12/4/4 13/6/6 22/24/22
f 22/24/22 13/6/6 23/25/23
f 13/6/6 14/8/8 23/25/23
f 23/25/23 14/8/8 24/26/24
f 14/8/8 15/10/10 24/26/24
f 24/26/24 15/10/10 25/27/25
f 15/10/10 16/12/12 25/27/25
f 25/27/25 16/12/12 26/28/26
f 16/12/12 17/14/14 26/28/26
f 26/28/26 17/14/14 27/29/27
f 17/14/14 18/16/16 27/29/27
f 27/29/27 18/16/16 28/30/28
f 18/16/16 19/18/18 28/30/28
f 28/30/28 19/18/18 29/31/29
f 19/18/18 20/20/20 29/31/29
f 29/31/29 20/20/20 30/32/30
f 20/20/20 11/22/3 30/32/30
f 30/32/30 11/22/3 21/33/21
f 21/23/21 22/24/22 31/34/31
f 31/34/31 22/24/22 32/35/32
f 22/24/22 23/25/23 32/35/32
f 32/35/32 23/25/23 33/36/33
f 23/25/23 24/26/24 33/36/33
f 33/36/33 24/26/24 34/37/34
f 24/26/24 25/27/25 34/37/34
f 34/37/34 25/27/25 35/38/35
f 25/27/25 26/28/26 35/38/35
f 35/38/35 26/28/26 36/39/36
f 26/28/26 27/29/27 36/39/36
f 36/39/36 27/29/27 37/40/37
f 27/29/27 28/30/28 37/40/37
f 37/40/37 28/30/28 38/41/38
f 28/30/28 29/31/29 38/41/38
f 38/41/38 29/31/29 39/42/39
f 29/31/29 30/32/30 39/42/39
f 39/42/39 30/32/30 40/43/40
f 30/32/30 21/33/21 40/43/40
f 40/43/40 21/33/21 31/44/31
f 2/2/2 1/1/1 41/45/41
f 3/5/5 2/2/2 41/46/41
f 4/7/7 3/5/5 41/47/41
f 5/9/9 4/7/7 41/48/41
f 6/11/11 5/9/9 41/49/41
f 7/13/13 6/11/11 41/50/41
f 8/15/15 7/13/13 41/51/41
f 9/17/17 8/15/15 41/52/41
f 10/19/19 9/17/17 41/53/41
f 1/21/1 10/19/19 41/54/41
f 31/34/31 32/35/32 42/55/42
f 32/35/32 33/36/33 42/56/42
f 33/36/33 34/37/34 42/57/42
f 34/37/34 35/38/35 42/58/42
f 35/38/35 36/39/36 42/59/42
f 36/39/36 37/40/37 42/60/42
f 37/40/37 38/41/38 42/61/42
f 38/41/38 39/42/39 42/62/42
f 39/42/39 40/43/40 42/63/42
f 40/43/40 31/44/31 42/64/42
